<svg width="90" height="131" viewBox="0 0 90 131" fill="none" xmlns="http://www.w3.org/2000/svg">
<path d="M0.723375 107.796C4.71271 104.628 6.53138 103.162 6.17938 103.396C17.678 93.8922 26.7127 86.0895 33.2834 79.9882C39.9714 73.8869 45.6034 67.4922 50.1794 60.8042C54.7554 54.1162 57.0434 47.6042 57.0434 41.2682C57.0434 36.4575 55.9287 32.7029 53.6994 30.0042C51.47 27.3055 48.126 25.9562 43.6674 25.9562C39.2087 25.9562 35.6887 27.6575 33.1074 31.0602C30.6434 34.3455 29.4114 39.0389 29.4114 45.1402H0.371375C0.606042 35.1669 2.71804 26.8362 6.70738 20.1482C10.814 13.4602 16.1527 8.5322 22.7234 5.3642C29.4114 2.19619 36.8034 0.612194 44.8994 0.612194C58.862 0.612194 69.3634 4.19086 76.4034 11.3482C83.5607 18.5055 87.1394 27.8335 87.1394 39.3322C87.1394 51.8869 82.8567 63.5615 74.2914 74.3562C65.726 85.0335 54.814 95.4762 41.5554 105.684H89.0754V130.148H0.723375V107.796Z" fill="#5A5A5A" fill-opacity="0.1"/>
</svg>
