<svg width="90" height="133" viewBox="0 0 90 133" fill="none" xmlns="http://www.w3.org/2000/svg">
<path d="M1.67522 39.6842C2.14455 27.1295 6.25122 17.4495 13.9952 10.6442C21.7392 3.83886 32.2406 0.436196 45.4992 0.436196C54.2992 0.436196 61.8086 1.96153 68.0272 5.0122C74.3632 8.06286 79.1152 12.2282 82.2832 17.5082C85.5686 22.7882 87.2112 28.7135 87.2112 35.2842C87.2112 43.0282 85.2752 49.3642 81.4032 54.2922C77.5312 59.1029 73.0139 62.3882 67.8512 64.1482V64.8522C74.5392 67.0815 79.8192 70.7775 83.6912 75.9402C87.5632 81.1029 89.4992 87.7322 89.4992 95.8282C89.4992 103.103 87.7979 109.556 84.3952 115.188C81.1099 120.703 76.2406 125.044 69.7872 128.212C63.4512 131.38 55.8832 132.964 47.0832 132.964C33.0032 132.964 21.7392 129.503 13.2912 122.58C4.96055 115.658 0.560553 105.215 0.0912193 91.2522H29.3072C29.4246 96.4149 30.8912 100.522 33.7072 103.572C36.5232 106.506 40.6299 107.972 46.0272 107.972C50.6032 107.972 54.1232 106.682 56.5872 104.1C59.1686 101.402 60.4592 97.8815 60.4592 93.5402C60.4592 87.9082 58.6406 83.8602 55.0032 81.3962C51.4832 78.8149 45.7926 77.5242 37.9312 77.5242H32.2992V53.0602H37.9312C43.9152 53.0602 48.7259 52.0629 52.3632 50.0682C56.1179 47.9562 57.9952 44.2602 57.9952 38.9802C57.9952 34.7562 56.8219 31.4709 54.4752 29.1242C52.1286 26.7775 48.9019 25.6042 44.7952 25.6042C40.3366 25.6042 36.9926 26.9535 34.7632 29.6522C32.6512 32.3509 31.4192 35.6949 31.0672 39.6842H1.67522Z" fill="#5A5A5A" fill-opacity="0.1"/>
</svg>
